<mxfile host="app.diagrams.net" agent="Mozilla/5.0 (Windows NT 10.0; Win64; x64) AppleWebKit/537.36 (KHTML, like Gecko) Chrome/131.0.0.0 Safari/537.36 Edg/131.0.0.0" version="25.0.1">
  <diagram name="Page-1" id="0783ab3e-0a74-02c8-0abd-f7b4e66b4bec">
    <mxGraphModel dx="1130" dy="620" grid="1" gridSize="10" guides="1" tooltips="1" connect="1" arrows="1" fold="1" page="1" pageScale="1" pageWidth="850" pageHeight="1100" background="none" math="0" shadow="0">
      <root>
        <mxCell id="0" />
        <mxCell id="1" parent="0" />
        <mxCell id="IDEOeWn6x7dvLfQBAYid-27" style="edgeStyle=none;curved=1;rounded=0;orthogonalLoop=1;jettySize=auto;html=1;exitX=0.5;exitY=1;exitDx=0;exitDy=0;fontSize=12;startSize=8;endSize=8;" edge="1" parent="1" source="60571a20871a0731-4" target="60571a20871a0731-8">
          <mxGeometry relative="1" as="geometry" />
        </mxCell>
        <mxCell id="60571a20871a0731-4" value="" style="ellipse;whiteSpace=wrap;html=1;rounded=0;shadow=0;comic=0;labelBackgroundColor=none;strokeWidth=1;fillColor=#000000;fontFamily=Verdana;fontSize=12;align=center;" parent="1" vertex="1">
          <mxGeometry x="780" y="60" width="40" height="40" as="geometry" />
        </mxCell>
        <mxCell id="IDEOeWn6x7dvLfQBAYid-28" style="edgeStyle=none;curved=1;rounded=0;orthogonalLoop=1;jettySize=auto;html=1;exitX=0.5;exitY=1;exitDx=0;exitDy=0;fontSize=12;startSize=8;endSize=8;" edge="1" parent="1" source="60571a20871a0731-8" target="IDEOeWn6x7dvLfQBAYid-1">
          <mxGeometry relative="1" as="geometry" />
        </mxCell>
        <mxCell id="60571a20871a0731-8" value="初始状态" style="rounded=1;whiteSpace=wrap;html=1;shadow=0;comic=0;labelBackgroundColor=none;strokeWidth=1;fontFamily=Verdana;fontSize=12;align=center;arcSize=50;" parent="1" vertex="1">
          <mxGeometry x="750" y="160" width="100" height="30" as="geometry" />
        </mxCell>
        <mxCell id="IDEOeWn6x7dvLfQBAYid-5" style="edgeStyle=none;curved=1;rounded=0;orthogonalLoop=1;jettySize=auto;html=1;exitX=0;exitY=0.5;exitDx=0;exitDy=0;fontSize=12;startSize=8;endSize=8;" edge="1" parent="1" source="IDEOeWn6x7dvLfQBAYid-1">
          <mxGeometry relative="1" as="geometry">
            <mxPoint x="749.9032258064515" y="245.1612903225806" as="targetPoint" />
          </mxGeometry>
        </mxCell>
        <mxCell id="IDEOeWn6x7dvLfQBAYid-10" style="edgeStyle=none;curved=1;rounded=0;orthogonalLoop=1;jettySize=auto;html=1;exitX=0.5;exitY=1;exitDx=0;exitDy=0;fontSize=12;startSize=8;endSize=8;" edge="1" parent="1" source="IDEOeWn6x7dvLfQBAYid-1" target="IDEOeWn6x7dvLfQBAYid-2">
          <mxGeometry relative="1" as="geometry" />
        </mxCell>
        <mxCell id="IDEOeWn6x7dvLfQBAYid-1" value="输入用户名" style="rounded=1;whiteSpace=wrap;html=1;shadow=0;comic=0;labelBackgroundColor=none;strokeWidth=1;fontFamily=Verdana;fontSize=12;align=center;arcSize=50;" vertex="1" parent="1">
          <mxGeometry x="750" y="230" width="100" height="30" as="geometry" />
        </mxCell>
        <mxCell id="IDEOeWn6x7dvLfQBAYid-2" value="判断账户是否存在" style="rhombus;whiteSpace=wrap;html=1;" vertex="1" parent="1">
          <mxGeometry x="735" y="310" width="130" height="70" as="geometry" />
        </mxCell>
        <mxCell id="IDEOeWn6x7dvLfQBAYid-13" value="" style="edgeStyle=segmentEdgeStyle;endArrow=classic;html=1;curved=0;rounded=0;endSize=8;startSize=8;sourcePerimeterSpacing=0;targetPerimeterSpacing=0;fontSize=12;exitX=0;exitY=0.5;exitDx=0;exitDy=0;entryX=0;entryY=0.5;entryDx=0;entryDy=0;" edge="1" parent="1" source="IDEOeWn6x7dvLfQBAYid-2" target="IDEOeWn6x7dvLfQBAYid-1">
          <mxGeometry width="140" relative="1" as="geometry">
            <mxPoint x="729.94" y="349.9699999999999" as="sourcePoint" />
            <mxPoint x="770" y="230" as="targetPoint" />
            <Array as="points">
              <mxPoint x="735" y="350" />
              <mxPoint x="700" y="350" />
              <mxPoint x="700" y="245" />
            </Array>
          </mxGeometry>
        </mxCell>
        <mxCell id="IDEOeWn6x7dvLfQBAYid-14" value="否" style="text;strokeColor=none;align=center;fillColor=none;html=1;verticalAlign=middle;whiteSpace=wrap;rounded=0;fontSize=16;" vertex="1" parent="1">
          <mxGeometry x="660" y="270" width="40" height="20" as="geometry" />
        </mxCell>
        <mxCell id="IDEOeWn6x7dvLfQBAYid-15" value="是" style="endArrow=block;endFill=1;html=1;edgeStyle=orthogonalEdgeStyle;align=left;verticalAlign=top;rounded=0;fontSize=12;startSize=8;endSize=8;curved=1;" edge="1" parent="1">
          <mxGeometry x="-0.1875" y="-5" relative="1" as="geometry">
            <mxPoint x="865" y="344.64" as="sourcePoint" />
            <mxPoint x="960" y="345" as="targetPoint" />
            <mxPoint as="offset" />
          </mxGeometry>
        </mxCell>
        <mxCell id="IDEOeWn6x7dvLfQBAYid-17" value="输入密码" style="rounded=1;whiteSpace=wrap;html=1;shadow=0;comic=0;labelBackgroundColor=none;strokeWidth=1;fontFamily=Verdana;fontSize=12;align=center;arcSize=50;" vertex="1" parent="1">
          <mxGeometry x="960" y="330" width="100" height="30" as="geometry" />
        </mxCell>
        <mxCell id="IDEOeWn6x7dvLfQBAYid-18" value="是" style="endArrow=block;endFill=1;html=1;edgeStyle=orthogonalEdgeStyle;align=left;verticalAlign=top;rounded=0;fontSize=12;startSize=8;endSize=8;curved=1;exitX=1;exitY=0.5;exitDx=0;exitDy=0;" edge="1" parent="1" source="IDEOeWn6x7dvLfQBAYid-17">
          <mxGeometry x="-0.1875" y="-5" relative="1" as="geometry">
            <mxPoint x="1100" y="345" as="sourcePoint" />
            <mxPoint x="1170" y="345" as="targetPoint" />
            <mxPoint as="offset" />
          </mxGeometry>
        </mxCell>
        <mxCell id="IDEOeWn6x7dvLfQBAYid-22" style="edgeStyle=none;curved=1;rounded=0;orthogonalLoop=1;jettySize=auto;html=1;exitX=0;exitY=1;exitDx=0;exitDy=0;entryX=0.5;entryY=0;entryDx=0;entryDy=0;fontSize=12;startSize=8;endSize=8;" edge="1" parent="1" source="IDEOeWn6x7dvLfQBAYid-19" target="IDEOeWn6x7dvLfQBAYid-20">
          <mxGeometry relative="1" as="geometry" />
        </mxCell>
        <mxCell id="IDEOeWn6x7dvLfQBAYid-19" value="判断密码是否存在" style="rhombus;whiteSpace=wrap;html=1;" vertex="1" parent="1">
          <mxGeometry x="1170" y="310" width="130" height="70" as="geometry" />
        </mxCell>
        <mxCell id="IDEOeWn6x7dvLfQBAYid-20" value="登陆成功" style="rounded=1;whiteSpace=wrap;html=1;shadow=0;comic=0;labelBackgroundColor=none;strokeWidth=1;fontFamily=Verdana;fontSize=12;align=center;arcSize=50;" vertex="1" parent="1">
          <mxGeometry x="1100" y="440" width="100" height="30" as="geometry" />
        </mxCell>
        <mxCell id="IDEOeWn6x7dvLfQBAYid-21" value="登录失败" style="rounded=1;whiteSpace=wrap;html=1;shadow=0;comic=0;labelBackgroundColor=none;strokeWidth=1;fontFamily=Verdana;fontSize=12;align=center;arcSize=50;" vertex="1" parent="1">
          <mxGeometry x="1300" y="440" width="100" height="30" as="geometry" />
        </mxCell>
        <mxCell id="IDEOeWn6x7dvLfQBAYid-23" style="edgeStyle=none;curved=1;rounded=0;orthogonalLoop=1;jettySize=auto;html=1;exitX=1;exitY=1;exitDx=0;exitDy=0;entryX=0.622;entryY=-0.087;entryDx=0;entryDy=0;entryPerimeter=0;fontSize=12;startSize=8;endSize=8;" edge="1" parent="1" source="IDEOeWn6x7dvLfQBAYid-19" target="IDEOeWn6x7dvLfQBAYid-21">
          <mxGeometry relative="1" as="geometry" />
        </mxCell>
        <mxCell id="IDEOeWn6x7dvLfQBAYid-24" value="是" style="text;strokeColor=none;align=center;fillColor=none;html=1;verticalAlign=middle;whiteSpace=wrap;rounded=0;fontSize=16;" vertex="1" parent="1">
          <mxGeometry x="1140" y="380" width="60" height="30" as="geometry" />
        </mxCell>
        <mxCell id="IDEOeWn6x7dvLfQBAYid-25" value="否" style="text;strokeColor=none;align=center;fillColor=none;html=1;verticalAlign=middle;whiteSpace=wrap;rounded=0;fontSize=16;" vertex="1" parent="1">
          <mxGeometry x="1300" y="380" width="60" height="30" as="geometry" />
        </mxCell>
        <mxCell id="IDEOeWn6x7dvLfQBAYid-26" value="" style="edgeStyle=segmentEdgeStyle;endArrow=classic;html=1;curved=0;rounded=0;endSize=8;startSize=8;sourcePerimeterSpacing=0;targetPerimeterSpacing=0;fontSize=12;entryX=1;entryY=0.5;entryDx=0;entryDy=0;" edge="1" parent="1" target="IDEOeWn6x7dvLfQBAYid-1">
          <mxGeometry width="140" relative="1" as="geometry">
            <mxPoint x="1400" y="460" as="sourcePoint" />
            <mxPoint x="1360" y="310" as="targetPoint" />
            <Array as="points">
              <mxPoint x="1470" y="460" />
              <mxPoint x="1470" y="245" />
            </Array>
          </mxGeometry>
        </mxCell>
        <mxCell id="IDEOeWn6x7dvLfQBAYid-29" value="用户登录" style="shape=note;whiteSpace=wrap;html=1;rounded=0;shadow=0;comic=0;labelBackgroundColor=none;strokeWidth=1;fontFamily=Verdana;fontSize=12;align=center;size=20;" vertex="1" parent="1">
          <mxGeometry x="570" y="16" width="75" height="44" as="geometry" />
        </mxCell>
        <mxCell id="IDEOeWn6x7dvLfQBAYid-30" value="" style="ellipse;html=1;shape=endState;fillColor=#000000;strokeColor=#ff0000;" vertex="1" parent="1">
          <mxGeometry x="1140" y="535" width="30" height="30" as="geometry" />
        </mxCell>
        <mxCell id="IDEOeWn6x7dvLfQBAYid-31" style="edgeStyle=none;curved=1;rounded=0;orthogonalLoop=1;jettySize=auto;html=1;exitX=0.5;exitY=1;exitDx=0;exitDy=0;entryX=0.367;entryY=0.2;entryDx=0;entryDy=0;entryPerimeter=0;fontSize=12;startSize=8;endSize=8;" edge="1" parent="1" source="IDEOeWn6x7dvLfQBAYid-20" target="IDEOeWn6x7dvLfQBAYid-30">
          <mxGeometry relative="1" as="geometry" />
        </mxCell>
      </root>
    </mxGraphModel>
  </diagram>
</mxfile>
